<?xml version="1.0" standalone="no"?>
<!DOCTYPE svg PUBLIC "-//W3C//DTD SVG 20010904//EN"
 "http://www.w3.org/TR/2001/REC-SVG-20010904/DTD/svg10.dtd">
<svg version="1.0" xmlns="http://www.w3.org/2000/svg"
 width="700.000000pt" height="700.000000pt" viewBox="0 0 700.000000 700.000000"
 preserveAspectRatio="xMidYMid meet">
<metadata>
Created by potrace 1.11, written by Peter Selinger 2001-2013
</metadata>
<g transform="translate(0.000000,700.000000) scale(0.100000,-0.100000)"
fill="#000000" stroke="none">
<path d="M730 6765 c-232 -51 -430 -246 -491 -482 -38 -150 -17 -323 58 -466
56 -107 173 -221 283 -275 236 -117 502 -89 707 75 71 56 142 146 178 226 15
31 30 58 33 58 22 5 493 4 501 0 5 -3 26 -40 47 -81 50 -100 170 -220 271
-273 258 -134 560 -90 763 113 81 81 84 85 131 175 17 33 33 62 36 65 3 3 117
5 254 6 l250 0 41 -80 c59 -114 172 -226 288 -284 247 -124 534 -84 735 101
68 62 130 145 154 207 8 19 18 40 23 45 6 6 106 10 260 11 l251 0 40 -80 c80
-160 245 -291 423 -336 325 -83 670 105 780 425 34 100 42 254 18 355 -108
471 -676 667 -1052 364 -64 -51 -128 -131 -173 -217 l-38 -72 -251 0 -251 -1
-42 81 c-54 106 -172 225 -274 278 -193 100 -423 100 -616 0 -102 -53 -220
-172 -275 -279 l-41 -80 -251 0 -251 1 -42 78 c-75 139 -157 221 -292 288
-189 93 -408 91 -598 -8 -101 -52 -219 -171 -274 -279 l-42 -80 -252 0 c-158
1 -254 5 -256 11 -13 37 -85 154 -123 199 -150 177 -406 262 -640 211z"/>
<path d="M700 5006 c-118 -34 -195 -81 -286 -171 -139 -139 -201 -301 -191
-495 14 -249 159 -461 387 -564 90 -41 173 -56 290 -52 179 6 307 62 435 191
129 129 191 273 194 454 3 178 -62 335 -194 466 -171 172 -410 236 -635 171z"/>
<path d="M2480 5014 c-230 -49 -430 -245 -490 -480 -84 -329 107 -674 435
-783 89 -30 250 -37 345 -16 231 53 430 247 489 476 25 97 25 231 0 327 -87
341 -431 551 -779 476z"/>
<path d="M4290 5027 c-3 -3 -24 -7 -48 -11 -111 -15 -248 -93 -344 -195 -80
-86 -148 -216 -167 -319 -16 -85 -12 -204 10 -291 57 -224 246 -413 471 -470
88 -23 224 -25 311 -5 182 43 354 178 436 344 94 191 95 397 2 585 -91 184
-231 293 -451 353 -24 6 -215 14 -220 9z"/>
<path d="M5962 5009 c-228 -57 -425 -257 -476 -486 -70 -313 93 -629 388 -752
93 -39 111 -42 232 -47 191 -7 340 52 480 191 163 162 225 376 178 607 -36
175 -178 355 -344 437 -146 71 -302 88 -458 50z"/>
<path d="M730 3265 c-181 -40 -357 -179 -439 -345 -96 -196 -94 -411 7 -605
53 -104 173 -220 283 -274 195 -96 410 -94 602 6 102 53 219 172 274 278 l42
80 251 1 251 1 42 -81 c55 -108 164 -220 267 -275 113 -60 198 -80 327 -77
118 3 190 20 285 67 56 28 162 108 184 138 7 9 24 30 38 46 15 17 44 64 65
105 l38 75 249 1 c148 1 254 -3 262 -9 6 -5 12 -17 13 -26 1 -27 81 -147 134
-202 206 -212 520 -258 788 -117 94 50 214 174 264 274 l40 80 254 0 254 0 39
-81 c52 -105 168 -223 273 -278 261 -136 572 -87 775 122 132 136 195 302 185
491 -25 474 -517 759 -947 548 -116 -56 -230 -169 -285 -280 -21 -43 -41 -79
-44 -79 -3 -1 -119 -2 -257 -3 l-251 -2 -13 35 c-13 36 -83 148 -117 186 -41
47 -142 120 -208 151 -201 95 -444 81 -629 -36 -90 -57 -183 -159 -233 -256
l-42 -80 -251 0 -251 1 -42 80 c-60 116 -174 228 -287 284 -195 95 -405 94
-602 -5 -102 -51 -219 -170 -274 -279 l-41 -80 -253 0 -253 0 -38 75 c-86 169
-232 288 -416 338 -84 23 -226 26 -313 7z"/>
<path d="M700 1506 c-119 -35 -196 -81 -286 -171 -63 -63 -90 -100 -123 -166
-95 -192 -95 -396 0 -588 85 -172 261 -308 449 -347 354 -73 702 154 776 507
15 72 15 213 0 282 -45 198 -204 384 -396 460 -89 35 -109 39 -235 43 -91 2
-123 -1 -185 -20z"/>
<path d="M2488 1515 c-136 -29 -243 -90 -340 -193 -189 -201 -231 -490 -107
-742 59 -119 170 -230 289 -289 193 -95 397 -95 590 0 114 57 227 169 287 284
l42 80 251 1 252 0 25 -50 c96 -195 264 -330 463 -372 96 -20 240 -14 330 15
331 106 525 452 440 785 -105 413 -562 616 -943 419 -102 -53 -220 -172 -275
-279 l-41 -80 -251 0 -252 1 -31 63 c-117 232 -345 374 -597 371 -41 -1 -101
-7 -132 -14z"/>
<path d="M5950 1506 c-276 -81 -463 -314 -477 -596 -6 -123 13 -218 68 -330
76 -153 233 -285 399 -334 84 -26 231 -31 320 -12 243 51 446 251 506 497 14
56 13 226 -2 289 -49 214 -206 393 -410 470 -78 29 -98 32 -219 35 -91 3 -123
0 -185 -19z"/>
</g>
</svg>
